<svg xmlns="http://www.w3.org/2000/svg" width="100" height="100" viewBox="0 0 100 100"><path fill="#1F1E21" d="M85.83 63.29c-.306-1.474-.753-2.914-.927-4.41-.175-1.54.038-3.122.06-4.66 0-.042-.014-.07-.02-.104.006-.036.02-.062.02-.098-.01-1.646.41-3.386.106-5.02-.304-1.61-1.105-3.056-1.414-4.664 0-.01.01-.02.01-.03.06-1.45.255-2.742.76-4.094.27-.73.5-1.512.58-2.288.143-1.354-.655-1.687-1.547-1.22-.117-.584-.312-1-.726-1.525-.155-.19-.517-.225-.715-.088.055-.04-1.648-.63-1.9-.617-.25.012-1.255-.817-1.633-.925-.61-.164-1.06.1-1.563-.385-.46-.44-1.74-.034-2.306-.034-.637 0-.74.45-1.474.032-.65-.378-1.39-.424-2.01-.89-.082-.06-.16-.09-.24-.105-.013-.004-.02-.018-.037-.02-3.08-1.076-6.082-4.672-9.55-3.604-.192-.466-.348-.943-.442-1.438-.144-.597-.96-.52-1.133.004-.098.294-.18.59-.254.885-1.2-.787-2.48-1.263-3.923-1.65-2.286-.597-5.427.12-7.264-1.566-.225-.212-.61-.246-.83 0-.84.928-2.745-.505-3.703-.437-1.858.13-3.692 1.66-5.573.832-.3-.135-.62-.085-.807.217-.707 1.128-2.17.237-2.9 1.487-.868 1.485-1.42.89-3 .725-.307-.032-.606.294-.587.587.146.366.075.666-.22.898-.317.034-.588.242-.587.587 0 .722-1.16 1.407-1.47 1.938-.464.794-.452.858-1.54.786-.957-.066-1.726-.284-2.677-.194-.34.03-.554.244-.585.59-.103 1.178-.89 2.127-1.614 2.84-.24.24-.347.782-.247 1.097.29.937-.327.81-1.14 1.104-.378.135-.526.506-.35.863.43.882-.24 2.295-.43 3.173-.398 1.873-1.246 3.096-2.544 4.483-1.558 1.666-3.24 3.087-4.43 5.06-.365.602.435 1.13.924.712 3.016-2.568 2.268 1.138 2.175 2.687-.023.387.393.66.745.564.52-.145.746-.21 1.006-.318.22 2.125-.85 4.164.163 6.256.175.364.656.343.923.115.784-.67 1.258-1.2 1.987-.47.092.09.226.197.372.28 2.053 2.01 3.535 4.813 6.708 4.818 1.142.002 2.024.444 3.184.472 1.895.048 3.62-.408 5.424-.956.86-.26 1.717-.52 2.59-.748 1.68-.435 2.763.244 4.29.574 1.777.385 3.423-.6 5.256-.16 1.412.334 2.86-.204 4.315-.24 1.1-.03 1.797-.926 3.088-.288.274.13.65.082.803-.216.21-.398 3.05.217 3.868-.305.85-.54 1.677-.275 2.49-.713 1.02-.54 2.106-.874 3.127-1.402 6.33-1.317 12.697-.104 18.344 2.974.023.014.045.014.07.024.023.015.037.03.063.042.575.254 1.79.622 2.03-.3.2-.78-.545-1.264-1.174-1.527zm-19.824-2.318c-.144.034-.238.107-.307.197-1.084.546-2.998 1.38-4.05 1.423-.997.034-1.438 1-2.552.767-1.17-.242-2.06-.766-2.78.068-.637-.392-1.04-.734-1.954-.617-1.04.135-1.52 1.076-2.803.948-.415-.042-1.066.27-1.446.39-1.56.51-.993-.312-1.738-.314-2.35-.02-4.38.585-6.72-.223-2.856-.98-6.693 1.523-9.57 1.77-1.49.126-2.26-.887-3.614-.664-2.72.456-4.237-2.073-5.875-3.874.09-.094.184-.204.284-.347.81-1.156 2.605-1.565 3.818-2.213 1.155-.62 2.365-1.04 3.56-1.55 1.485-.638 1.68.528 2.893.527 2.265-.003 3.6-3.3 5.846-2.865.754.144 1.8-.288 2.47-.542.767-.295.614-.195 1.31-.006.973.27 1.953-.12 2.845-.45 1.426-.53 2.738-.723 4.214-1.044 1.228-.274 2.46-.618 3.612-1.135 1.135-.76 2.372-.96 3.71-.6.33.084.72.05 1.046-.037.502-.137.882-.825 1.153-1.203 1.226-1.702 4.036-1.946 5.858-2.655.316-.124.603-.535.35-.865.018.016.037.035.054.056.414-.063.487-.56.35-.87-.162-.365-.367-.665-.59-.948.193 0 .404-.026.655-.103.178-.054.38-.215.41-.414.12-.844-.612-1.587.586-1.84.7-.143 1-1.074 1.003-1.665.003-1.768 3.13-3.152 4.89-2.546.277.095.672-.108.72-.415.33-.372.656-.745.984-1.12.37-.01.687-.37.564-.746.31-.507.728-.71 1.256-.606.12 0 .214-.036.298-.088.006.006.008.006.013.006 1.224.72 5.402 1.066 5.584 2.454.035.257.2.415.395.497.02.164.13.3.272.406-.583.85-.832 1.833-1.033 2.853-.114.573.532.887.904.66-.213.926-.347 1.853-.39 2.874-.004.053.015.095.023.146 0 .046-.01.092 0 .144.264 1.43.914 2.726 1.313 4.12.473 1.66-.047 3.607-.037 5.304 0 .037.017.07.022.104-.005.033-.02.062-.022.098-.027 1.77-.19 3.517.014 5.285.163 1.414.624 2.786.91 4.177-5.805-2.977-12.268-4.092-18.704-2.71zM71.428 43.946c-.466-1.33-.945-2.907-.324-4.14.486-.967 1.836-1.178 2.585-.482.668.626.857 1.684.884 2.57-1.3.377-2.258 1.1-3.146 2.052zM76.064 49.933c-.758.002-.757 1.182.002 1.176.762 0 .758-1.177-.002-1.177zM80.02 52.826c-1.196 1.866-4.778 1.817-6.32.434-.563-.505-1.396.328-.83.836 2.126 1.905 6.54 1.865 8.17-.677.41-.642-.61-1.23-1.02-.594z"/><path fill="#010101" d="M37.222 70.378c-2.818 1.165-6.677-.786-7.61-3.518-.432-1.274-.105-2.938.258-4.17.494-1.675 1.95-2.064 3.292-2.838.07-.04.12-.09.16-.142 6.31-2.64 10.282 8.037 3.9 10.668zM67.148 70.327c-2.82 1.16-6.677-.786-7.61-3.52-.435-1.275-.107-2.937.256-4.17.492-1.674 1.95-2.06 3.293-2.837.068-.04.118-.09.16-.142 6.306-2.643 10.28 8.036 3.9 10.67z"/><path fill="#1F1E21" d="M73.895 60.75c0-.007 0-.01-.003-.017-.704-1.374-2.438-2.23-2.472-3.923-.014-.757-1.19-.757-1.175 0 .017.88.39 1.665.882 2.38.53.765 1.318 1.3 1.75 2.14.266.52.923.287 1.056-.156 1.808 1.242.604.14-.038-.425z"/><g fill="#fff"><path d="M69.29 34.966c-.35-.526-.805-.966-1.155-1.49-.42-.63-1.438-.035-1.015.598.35.525.807.962 1.153 1.486.42.63 1.44.04 1.016-.594zM65.695 37.267c-.335-.18-.622-.387-.898-.65-.546-.526-1.38.306-.83.833.34.33.715.61 1.135.835.67.357 1.263-.662.593-1.018zM63.303 39.492c-.634-.08-1.262-.197-1.897-.27-.753-.08-.742 1.098.002 1.176.636.077 1.265.195 1.9.273.75.09.738-1.087-.005-1.178zM60.668 42.952c-1.127.01-2.235.162-3.34.365-.746.137-.427 1.27.316 1.133 1.002-.187 2.004-.312 3.025-.323.758-.008.757-1.18-.002-1.175zM55.097 45.963c-1.59.396-3.136.91-4.784 1-.755.046-.756 1.222.002 1.18 1.758-.1 3.404-.626 5.097-1.044.738-.19.422-1.323-.315-1.137zM37.1 50.683c-.48.58-1.112.934-1.774 1.268-.676.342-.08 1.356.596 1.014.745-.378 1.475-.798 2.012-1.45.483-.58-.348-1.414-.833-.83zM30.127 51.914c-.525.495-1.175.808-1.775 1.198-.633.412-.042 1.43.597 1.015.683-.448 1.41-.814 2.01-1.38.556-.522-.282-1.354-.833-.833zM22.277 55.722c-.2.16-.362.352-.538.54-.52.557.312 1.388.832.834.175-.19.337-.383.54-.544.59-.473-.25-1.3-.835-.83zM22.657 50.142c-1.006.486-2.067.75-2.96 1.455-.595.466.245 1.292.832.828.788-.62 1.832-.837 2.723-1.268.685-.33.084-1.344-.596-1.015zM21.567 46.49c-1.02.777-2.045 1.546-3.242 2.043-.69.287-.386 1.425.315 1.136 1.302-.545 2.408-1.315 3.524-2.167.592-.457.007-1.478-.597-1.014zM26.66 38.27c-1.053.083-2.073.29-3.07.637-.71.248-.403 1.383.317 1.134.898-.313 1.806-.52 2.754-.593.753-.058.758-1.238 0-1.178zM34.1 33.04c-1.132-.07-2.252-.236-3.386-.127-.75.072-.754 1.25 0 1.177 1.138-.108 2.257.054 3.388.13.758.05.75-1.128-.002-1.18zM39.806 30.138c-.68-.228-1.26-.688-1.894-1.02-.67-.347-1.266.667-.593 1.02.73.38 1.39.874 2.172 1.14.724.24 1.028-.894.314-1.14zM45.71 29.793c-.426-.845-1.182-1.42-1.974-1.903-.65-.395-1.24.625-.593 1.018.63.385 1.213.807 1.552 1.48.342.678 1.355.08 1.016-.595zM50.79 27.82c-.422-.627-1.44-.04-1.02.593.278.42.43.823.397 1.33-.052.755 1.126.75 1.18-.002.044-.696-.18-1.35-.558-1.92zM59.326 30.245c-.1-.237-.284-.448-.568-.432l-.08.004c-.503.022-.662.542-.495.884-.09.707.993.994 1.133.266.048-.24.108-.488.01-.72zM56.136 34.38c-1.845-.642-3.564-1.617-5.49-2.022-.74-.156-1.053.978-.31 1.133 1.92.404 3.645 1.386 5.488 2.027.72.247 1.025-.89.312-1.136zM45.82 35.122c-3.088-.246-6.18-.326-9.28-.326-.758 0-.756 1.18.002 1.18 3.1 0 6.19.076 9.28.323.758.06.75-1.12-.002-1.178zM38.42 37.388c-1.15.295-2.315.323-3.48.518-1.37.233-2.704.642-4.08.828-.742.1-.748 1.283.002 1.18 1.116-.153 2.195-.427 3.292-.673 1.518-.342 3.075-.328 4.58-.715.736-.19.423-1.326-.315-1.137zM33.07 40.846c-2.42 1.126-4.927 2.045-7.24 3.397-.654.382-.06 1.397.596 1.015 2.312-1.35 4.82-2.27 7.242-3.398.687-.317.087-1.332-.597-1.014zM31.386 44.778c-.798.394-1.61.752-2.37 1.22-.705.435-1.15 1.17-1.89 1.56-.674.355-.078 1.373.594 1.02.637-.337 1.11-.857 1.626-1.34.712-.668 1.773-1.022 2.635-1.448.682-.335.082-1.348-.594-1.012zM37.848 45.566c-2.127.287-3.974 1.28-5.916 2.123-.694.303-.09 1.312.596 1.012 1.733-.75 3.425-1.705 5.32-1.958.74-.1.75-1.28 0-1.178zM45.753 47.466c-1.942.292-3.91.532-5.756 1.23-.7.266-.396 1.404.316 1.137 1.845-.704 3.813-.94 5.755-1.23.75-.113.427-1.24-.315-1.137zM45.968 41.76c-2.53-.133-5.14-.152-7.605.505-.733.195-.42 1.332.312 1.135 2.365-.63 4.87-.595 7.294-.462.76.042.753-1.142-.002-1.178zM52.328 38.43c-2.05 0-4.085-.017-6.116.3-.75.122-.426 1.254.314 1.134 1.922-.3 3.866-.258 5.805-.258.76 0 .757-1.175-.002-1.175zM57.678 37.61c-.738-.037-1.422-.37-2.167-.406-.76-.036-.754 1.144.002 1.178.74.033 1.42.368 2.17.404.758.034.75-1.144-.004-1.177zM65.005 33.617c-1.942-.42-3.926-.61-5.913-.55-.758.02-.757 1.197.003 1.178 1.883-.057 3.758.108 5.6.51.742.16 1.055-.974.31-1.138zM57.867 41.42c-2.51.584-5.088.794-7.583 1.434-.737.19-.422 1.326.312 1.135 2.498-.642 5.076-.853 7.586-1.435.738-.17.424-1.306-.315-1.135zM47.53 44.397c-1.23.125-2.43.365-3.636.625-1.186.254-2.447.272-3.567.754-.694.3-.093 1.312.595 1.018.816-.352 1.928-.365 2.8-.535 1.27-.253 2.52-.554 3.812-.686.746-.075.75-1.252-.005-1.177zM41.406 39.618c-1.02.23-2.058.275-3.095.39-.745.087-.75 1.264.003 1.178 1.142-.125 2.284-.178 3.408-.432.742-.164.425-1.3-.314-1.136zM52.886 35.534c-.3-.07-.595-.086-.9-.086-.168 0-.292.064-.385.15-.617-.01-1.24-.098-1.85-.145-.756-.06-.748 1.12.002 1.178 1.055.082 2.083.238 3.136.04.582-.105.544-1.005-.002-1.136zM56.727 31.21c-.672-.562-1.466-.87-2.22-1.305-.66-.382-1.25.638-.59 1.018.655.375 1.395.635 1.98 1.122.58.482 1.415-.344.83-.835zM46.583 32.84c-1.135-.294-2.148-.916-3.32-1.08-.743-.1-1.06 1.034-.31 1.137 1.17.162 2.186.786 3.32 1.076.733.19 1.044-.945.31-1.134zM32.887 35.957c-1.87-.242-3.747-.013-5.62.01-.76.01-.76 1.187 0 1.176 1.877-.02 3.75-.252 5.622-.01.75.098.74-1.08-.003-1.176zM26.123 41.252c-1.285-.018-2.167.818-3.206 1.442-.65.388-.06 1.403.593 1.01.826-.49 1.596-1.29 2.615-1.277.758.013.756-1.164-.002-1.175zM27.67 50.335c-1.32.773-2.63 1.562-3.927 2.38-.64.406-.045 1.42.598 1.012 1.295-.815 2.604-1.603 3.926-2.373.654-.383.06-1.403-.596-1.02z"/></g></svg>