<?xml version="1.0" encoding="utf-8"?>
<!-- Generator: Adobe Illustrator 17.0.2, SVG Export Plug-In . SVG Version: 6.00 Build 0)  -->
<!DOCTYPE svg PUBLIC "-//W3C//DTD SVG 1.1//EN" "http://www.w3.org/Graphics/SVG/1.1/DTD/svg11.dtd">
<svg version="1.1" id="Layer_1" xmlns="http://www.w3.org/2000/svg" xmlns:xlink="http://www.w3.org/1999/xlink" x="0px" y="0px"
	 width="100px" height="100px" viewBox="0 0 100 100" enable-background="new 0 0 100 100" xml:space="preserve">
<g>
	<path fill="#1F1E21" d="M85.829,63.291c-0.305-1.475-0.752-2.915-0.926-4.412c-0.175-1.538,0.038-3.121,0.059-4.659
		c0-0.042-0.013-0.069-0.019-0.104c0.006-0.036,0.019-0.062,0.019-0.098c-0.009-1.646,0.41-3.386,0.107-5.02
		c-0.303-1.61-1.104-3.056-1.413-4.664c0.001-0.011,0.009-0.021,0.009-0.031c0.06-1.448,0.256-2.741,0.761-4.093
		c0.27-0.73,0.501-1.512,0.58-2.288c0.143-1.354-0.655-1.687-1.547-1.22c-0.116-0.584-0.311-1.001-0.725-1.525
		c-0.155-0.191-0.517-0.225-0.715-0.088c0.056-0.04-1.647-0.629-1.899-0.616c-0.25,0.012-1.255-0.817-1.633-0.925
		c-0.609-0.164-1.061,0.099-1.563-0.385c-0.459-0.441-1.74-0.034-2.306-0.034c-0.637,0.002-0.739,0.452-1.474,0.033
		c-0.651-0.378-1.389-0.424-2.01-0.889c-0.082-0.062-0.161-0.091-0.239-0.106c-0.014-0.004-0.021-0.018-0.038-0.02
		c-3.079-1.076-6.082-4.672-9.551-3.604c-0.191-0.466-0.347-0.943-0.441-1.438c-0.144-0.597-0.959-0.521-1.133,0.004
		c-0.098,0.295-0.181,0.592-0.254,0.886c-1.2-0.787-2.481-1.263-3.923-1.649c-2.286-0.598-5.427,0.119-7.264-1.567
		c-0.226-0.211-0.611-0.245-0.831,0c-0.839,0.929-2.745-0.504-3.703-0.436c-1.858,0.129-3.692,1.661-5.573,0.832
		c-0.301-0.135-0.621-0.085-0.807,0.217c-0.707,1.128-2.171,0.237-2.899,1.487c-0.869,1.486-1.42,0.891-3,0.726
		c-0.308-0.032-0.607,0.294-0.588,0.587c0.146,0.366,0.075,0.666-0.221,0.898c-0.316,0.034-0.587,0.242-0.586,0.587
		c0,0.722-1.16,1.407-1.469,1.938c-0.465,0.794-0.453,0.858-1.542,0.786c-0.956-0.067-1.725-0.285-2.676-0.195
		c-0.341,0.03-0.554,0.244-0.585,0.589c-0.104,1.179-0.892,2.128-1.615,2.842c-0.241,0.239-0.347,0.781-0.247,1.096
		c0.292,0.937-0.326,0.81-1.14,1.104c-0.377,0.135-0.525,0.506-0.349,0.863c0.429,0.882-0.241,2.295-0.429,3.173
		c-0.399,1.873-1.247,3.096-2.545,4.483c-1.558,1.666-3.24,3.087-4.43,5.06c-0.365,0.602,0.435,1.129,0.924,0.712
		c3.016-2.568,2.268,1.138,2.175,2.687c-0.023,0.387,0.393,0.66,0.745,0.564c0.519-0.144,0.746-0.208,1.006-0.317
		c0.221,2.125-0.85,4.164,0.163,6.256c0.176,0.364,0.657,0.343,0.924,0.115c0.784-0.67,1.258-1.199,1.987-0.47
		c0.092,0.089,0.226,0.197,0.372,0.279c2.053,2.01,3.535,4.814,6.708,4.819c1.142,0.001,2.024,0.443,3.184,0.471
		c1.895,0.048,3.619-0.408,5.424-0.956c0.861-0.261,1.717-0.521,2.589-0.748c1.681-0.435,2.764,0.244,4.292,0.574
		c1.776,0.385,3.422-0.599,5.255-0.16c1.412,0.334,2.859-0.204,4.315-0.241c1.101-0.03,1.798-0.925,3.089-0.287
		c0.274,0.131,0.649,0.082,0.803-0.216c0.209-0.398,3.049,0.217,3.867-0.305c0.849-0.54,1.677-0.275,2.491-0.713
		c1.018-0.541,2.105-0.874,3.126-1.402c6.331-1.317,12.697-0.104,18.344,2.974c0.024,0.014,0.046,0.014,0.071,0.024
		c0.023,0.015,0.037,0.031,0.063,0.042c0.575,0.254,1.79,0.622,2.029-0.299C87.203,64.038,86.458,63.554,85.829,63.291z
		 M66.006,60.972c-0.144,0.034-0.238,0.107-0.307,0.197c-1.083,0.547-2.997,1.382-4.049,1.424c-0.997,0.034-1.438,1.001-2.552,0.767
		c-1.17-0.242-2.059-0.766-2.78,0.068c-0.637-0.392-1.039-0.734-1.954-0.617c-1.039,0.134-1.519,1.075-2.803,0.947
		c-0.416-0.042-1.067,0.269-1.447,0.391c-1.56,0.509-0.993-0.313-1.738-0.315c-2.35-0.02-4.381,0.585-6.72-0.223
		c-2.856-0.981-6.693,1.522-9.571,1.768c-1.489,0.127-2.258-0.886-3.613-0.663c-2.72,0.456-4.237-2.073-5.875-3.874
		c0.09-0.094,0.184-0.204,0.284-0.347c0.808-1.156,2.604-1.565,3.817-2.213c1.155-0.619,2.365-1.039,3.559-1.551
		c1.486-0.637,1.681,0.529,2.894,0.528c2.264-0.002,3.599-3.298,5.845-2.864c0.754,0.144,1.799-0.288,2.47-0.542
		c0.767-0.295,0.614-0.195,1.309-0.006c0.974,0.269,1.954-0.121,2.846-0.451c1.425-0.528,2.737-0.722,4.213-1.043
		c1.228-0.274,2.461-0.618,3.612-1.135c1.135-0.761,2.372-0.96,3.711-0.6c0.329,0.084,0.718,0.051,1.045-0.037
		c0.502-0.138,0.882-0.826,1.153-1.204c1.226-1.702,4.036-1.946,5.858-2.655c0.316-0.124,0.603-0.535,0.349-0.865
		c0.019,0.016,0.038,0.035,0.055,0.056c0.414-0.063,0.487-0.56,0.349-0.87c-0.161-0.365-0.366-0.665-0.59-0.948
		c0.194,0,0.405-0.026,0.656-0.103c0.178-0.054,0.381-0.215,0.411-0.414c0.118-0.844-0.613-1.587,0.585-1.839
		c0.7-0.144,1-1.075,1.003-1.666c0.002-1.768,3.129-3.152,4.888-2.546c0.278,0.095,0.673-0.108,0.722-0.415
		c0.329-0.372,0.655-0.745,0.983-1.121c0.371-0.008,0.687-0.37,0.564-0.745c0.309-0.507,0.728-0.711,1.256-0.606
		c0.121,0,0.214-0.036,0.298-0.088c0.006,0.006,0.008,0.006,0.013,0.006c1.224,0.719,5.402,1.066,5.584,2.454
		c0.036,0.257,0.2,0.415,0.396,0.497c0.02,0.165,0.131,0.301,0.272,0.407c-0.583,0.85-0.832,1.833-1.033,2.853
		c-0.114,0.574,0.532,0.888,0.904,0.661c-0.213,0.926-0.347,1.853-0.391,2.874c-0.003,0.053,0.016,0.095,0.024,0.146
		c-0.002,0.046-0.01,0.092-0.002,0.144c0.265,1.431,0.915,2.726,1.314,4.121c0.473,1.658-0.047,3.606-0.037,5.303
		c0,0.037,0.017,0.069,0.022,0.104c-0.005,0.033-0.02,0.062-0.022,0.098c-0.027,1.77-0.191,3.517,0.014,5.285
		c0.163,1.414,0.624,2.786,0.91,4.177C78.905,60.705,72.442,59.59,66.006,60.972z"/>
	<path fill="#1F1E21" d="M71.428,43.946c-0.466-1.329-0.945-2.907-0.324-4.139c0.486-0.968,1.836-1.179,2.585-0.483
		c0.669,0.626,0.858,1.684,0.885,2.571C73.275,42.271,72.316,42.995,71.428,43.946z"/>
	<path fill="#1F1E21" d="M76.064,49.933c-0.758,0.002-0.757,1.182,0.002,1.176C76.828,51.11,76.824,49.933,76.064,49.933z"/>
	<path fill="#1F1E21" d="M80.021,52.826c-1.197,1.866-4.779,1.817-6.322,0.434c-0.562-0.505-1.395,0.328-0.83,0.836
		c2.127,1.905,6.54,1.865,8.171-0.677C81.45,52.778,80.43,52.19,80.021,52.826z"/>
	<path fill="#010101" d="M37.222,70.378c-2.818,1.165-6.677-0.786-7.609-3.518c-0.433-1.274-0.106-2.938,0.257-4.171
		c0.494-1.674,1.951-2.063,3.292-2.837c0.071-0.041,0.12-0.091,0.161-0.142C39.633,57.07,43.604,67.747,37.222,70.378z"/>
	<path fill="#010101" d="M67.148,70.327c-2.819,1.16-6.677-0.786-7.609-3.52c-0.436-1.275-0.108-2.937,0.255-4.171
		c0.492-1.673,1.95-2.059,3.293-2.836c0.068-0.04,0.118-0.091,0.16-0.142C69.553,57.015,73.528,67.694,67.148,70.327z"/>
	<path fill="#1F1E21" d="M73.895,60.749c-0.001-0.006-0.001-0.009-0.003-0.016c-0.704-1.374-2.438-2.23-2.472-3.923
		c-0.014-0.757-1.189-0.757-1.175,0.001c0.017,0.88,0.39,1.664,0.882,2.378c0.529,0.766,1.318,1.3,1.751,2.142
		c0.265,0.52,0.922,0.286,1.055-0.157C75.741,62.416,74.537,61.313,73.895,60.749z"/>
	<g>
		<path fill="#FFFFFF" d="M69.289,34.966c-0.349-0.526-0.804-0.966-1.154-1.489c-0.42-0.631-1.438-0.036-1.015,0.597
			c0.349,0.525,0.807,0.962,1.153,1.486C68.692,36.19,69.713,35.601,69.289,34.966z"/>
		<path fill="#FFFFFF" d="M65.695,37.267c-0.335-0.179-0.622-0.387-0.898-0.65c-0.546-0.526-1.379,0.306-0.83,0.833
			c0.341,0.331,0.715,0.61,1.135,0.835C65.773,38.642,66.365,37.623,65.695,37.267z"/>
		<path fill="#FFFFFF" d="M63.303,39.492c-0.634-0.079-1.262-0.197-1.897-0.269c-0.753-0.082-0.742,1.097,0.002,1.175
			c0.636,0.077,1.265,0.195,1.899,0.273C64.057,40.761,64.046,39.583,63.303,39.492z"/>
		<path fill="#FFFFFF" d="M60.668,42.952c-1.127,0.011-2.235,0.162-3.339,0.365c-0.747,0.137-0.428,1.27,0.315,1.133
			c1.002-0.187,2.004-0.312,3.025-0.323C61.428,44.119,61.427,42.946,60.668,42.952z"/>
		<path fill="#FFFFFF" d="M55.097,45.963c-1.591,0.396-3.136,0.909-4.784,1.001c-0.755,0.045-0.756,1.221,0.002,1.178
			c1.758-0.099,3.404-0.625,5.097-1.043C56.15,46.911,55.834,45.777,55.097,45.963z"/>
		<path fill="#FFFFFF" d="M37.101,50.683c-0.48,0.58-1.113,0.934-1.775,1.268c-0.676,0.341-0.08,1.355,0.596,1.013
			c0.745-0.378,1.475-0.798,2.012-1.449C38.417,50.935,37.586,50.1,37.101,50.683z"/>
		<path fill="#FFFFFF" d="M30.127,51.914c-0.525,0.495-1.175,0.808-1.775,1.198c-0.633,0.412-0.042,1.429,0.597,1.015
			c0.684-0.448,1.411-0.814,2.011-1.381C31.516,52.225,30.678,51.393,30.127,51.914z"/>
		<path fill="#FFFFFF" d="M22.277,55.722c-0.201,0.16-0.362,0.352-0.538,0.541c-0.52,0.556,0.313,1.387,0.833,0.833
			c0.175-0.191,0.337-0.383,0.54-0.544C23.703,56.079,22.863,55.251,22.277,55.722z"/>
		<path fill="#FFFFFF" d="M22.657,50.142c-1.006,0.486-2.067,0.749-2.96,1.455c-0.595,0.466,0.245,1.292,0.832,0.828
			c0.789-0.62,1.833-0.837,2.724-1.268C23.938,50.828,23.337,49.813,22.657,50.142z"/>
		<path fill="#FFFFFF" d="M21.567,46.489c-1.02,0.778-2.045,1.547-3.242,2.044c-0.689,0.287-0.386,1.425,0.315,1.136
			c1.302-0.544,2.408-1.314,3.524-2.166C22.756,47.046,22.171,46.025,21.567,46.489z"/>
		<path fill="#FFFFFF" d="M26.659,38.269c-1.052,0.084-2.072,0.29-3.068,0.638c-0.71,0.248-0.404,1.383,0.316,1.134
			c0.898-0.314,1.806-0.522,2.754-0.594C27.413,39.389,27.418,38.209,26.659,38.269z"/>
		<path fill="#FFFFFF" d="M34.1,33.041c-1.132-0.072-2.252-0.237-3.386-0.128c-0.75,0.072-0.754,1.25,0,1.177
			c1.138-0.108,2.257,0.054,3.388,0.129C34.86,34.27,34.853,33.092,34.1,33.041z"/>
		<path fill="#FFFFFF" d="M39.806,30.138c-0.681-0.228-1.261-0.688-1.894-1.02c-0.671-0.347-1.266,0.667-0.593,1.02
			c0.73,0.381,1.39,0.874,2.173,1.14C40.216,31.519,40.52,30.384,39.806,30.138z"/>
		<path fill="#FFFFFF" d="M45.711,29.793c-0.427-0.845-1.183-1.421-1.975-1.903c-0.651-0.395-1.239,0.625-0.593,1.018
			c0.63,0.385,1.213,0.807,1.552,1.481C45.037,31.066,46.05,30.467,45.711,29.793z"/>
		<path fill="#FFFFFF" d="M50.789,27.819c-0.421-0.626-1.44-0.039-1.018,0.594c0.277,0.419,0.43,0.823,0.396,1.329
			c-0.052,0.756,1.126,0.75,1.179-0.001C51.391,29.044,51.168,28.391,50.789,27.819z"/>
		<path fill="#FFFFFF" d="M59.326,30.245c-0.099-0.237-0.284-0.448-0.568-0.432l-0.079,0.004c-0.504,0.022-0.663,0.542-0.496,0.884
			c-0.09,0.706,0.993,0.993,1.133,0.265C59.364,30.727,59.424,30.478,59.326,30.245z"/>
		<path fill="#FFFFFF" d="M56.136,34.381c-1.845-0.643-3.564-1.618-5.491-2.023c-0.74-0.156-1.052,0.978-0.31,1.133
			c1.921,0.403,3.646,1.385,5.489,2.026C56.544,35.764,56.849,34.627,56.136,34.381z"/>
		<path fill="#FFFFFF" d="M45.82,35.122c-3.088-0.246-6.18-0.326-9.28-0.326c-0.758,0-0.756,1.181,0.002,1.181
			c3.099,0,6.191,0.075,9.28,0.322C46.58,36.36,46.572,35.181,45.82,35.122z"/>
		<path fill="#FFFFFF" d="M38.419,37.388c-1.15,0.295-2.314,0.323-3.478,0.518c-1.371,0.233-2.705,0.642-4.081,0.828
			c-0.742,0.1-0.748,1.283,0.002,1.179c1.116-0.152,2.195-0.426,3.292-0.672c1.518-0.343,3.075-0.329,4.581-0.716
			C39.47,38.336,39.157,37.199,38.419,37.388z"/>
		<path fill="#FFFFFF" d="M33.071,40.846c-2.42,1.126-4.928,2.045-7.242,3.397c-0.653,0.382-0.059,1.397,0.597,1.015
			c2.312-1.349,4.82-2.271,7.242-3.398C34.355,41.543,33.755,40.528,33.071,40.846z"/>
		<path fill="#FFFFFF" d="M31.386,44.778c-0.798,0.394-1.61,0.752-2.37,1.221c-0.705,0.434-1.151,1.168-1.891,1.56
			c-0.673,0.354-0.077,1.372,0.595,1.018c0.637-0.336,1.109-0.856,1.626-1.339c0.712-0.668,1.773-1.022,2.635-1.448
			C32.662,45.455,32.062,44.442,31.386,44.778z"/>
		<path fill="#FFFFFF" d="M37.848,45.566c-2.127,0.287-3.974,1.279-5.916,2.123c-0.694,0.304-0.091,1.313,0.596,1.013
			c1.733-0.751,3.425-1.705,5.321-1.958C38.589,46.644,38.599,45.464,37.848,45.566z"/>
		<path fill="#FFFFFF" d="M45.753,47.466c-1.942,0.292-3.909,0.532-5.756,1.231c-0.701,0.265-0.396,1.403,0.316,1.136
			c1.845-0.704,3.813-0.94,5.755-1.229C46.817,48.49,46.495,47.362,45.753,47.466z"/>
		<path fill="#FFFFFF" d="M45.968,41.76c-2.531-0.133-5.141-0.152-7.605,0.505c-0.733,0.195-0.42,1.332,0.312,1.135
			c2.365-0.629,4.869-0.595,7.294-0.462C46.73,42.98,46.723,41.796,45.968,41.76z"/>
		<path fill="#FFFFFF" d="M52.328,38.431c-2.05,0-4.085-0.018-6.116,0.299c-0.749,0.122-0.426,1.254,0.314,1.134
			c1.922-0.301,3.866-0.258,5.805-0.258C53.089,39.606,53.087,38.431,52.328,38.431z"/>
		<path fill="#FFFFFF" d="M57.678,37.609c-0.738-0.036-1.422-0.368-2.167-0.405c-0.76-0.036-0.755,1.144,0.001,1.178
			c0.739,0.033,1.421,0.368,2.169,0.404C58.44,38.82,58.433,37.642,57.678,37.609z"/>
		<path fill="#FFFFFF" d="M65.005,33.617c-1.942-0.421-3.926-0.609-5.913-0.549c-0.758,0.02-0.757,1.196,0.003,1.177
			c1.883-0.057,3.758,0.108,5.599,0.509C65.437,34.915,65.75,33.781,65.005,33.617z"/>
		<path fill="#FFFFFF" d="M57.867,41.42c-2.51,0.584-5.088,0.794-7.583,1.434c-0.737,0.19-0.422,1.326,0.312,1.135
			c2.498-0.641,5.076-0.852,7.586-1.434C58.92,42.385,58.606,41.249,57.867,41.42z"/>
		<path fill="#FFFFFF" d="M47.529,44.397c-1.228,0.125-2.428,0.365-3.635,0.625c-1.186,0.254-2.447,0.272-3.567,0.754
			c-0.694,0.3-0.093,1.312,0.595,1.018c0.816-0.352,1.928-0.365,2.8-0.535c1.27-0.252,2.52-0.553,3.812-0.685
			C48.28,45.499,48.285,44.322,47.529,44.397z"/>
		<path fill="#FFFFFF" d="M41.406,39.618c-1.021,0.229-2.058,0.275-3.095,0.391c-0.746,0.086-0.752,1.263,0.002,1.177
			c1.142-0.125,2.284-0.178,3.408-0.432C42.462,40.59,42.145,39.453,41.406,39.618z"/>
		<path fill="#FFFFFF" d="M52.886,35.534c-0.299-0.071-0.595-0.086-0.901-0.086c-0.167,0-0.291,0.064-0.384,0.149
			c-0.618-0.009-1.242-0.097-1.85-0.144c-0.757-0.059-0.749,1.119,0.001,1.178c1.055,0.081,2.083,0.237,3.136,0.039
			C53.47,36.565,53.432,35.665,52.886,35.534z"/>
		<path fill="#FFFFFF" d="M56.727,31.21c-0.672-0.562-1.466-0.871-2.219-1.305c-0.66-0.382-1.25,0.638-0.592,1.018
			c0.656,0.375,1.396,0.635,1.982,1.122C56.476,32.527,57.312,31.701,56.727,31.21z"/>
		<path fill="#FFFFFF" d="M46.583,32.839c-1.135-0.293-2.148-0.915-3.321-1.078c-0.742-0.102-1.058,1.033-0.31,1.136
			c1.172,0.162,2.187,0.786,3.321,1.076C47.006,34.163,47.317,33.028,46.583,32.839z"/>
		<path fill="#FFFFFF" d="M32.887,35.957c-1.871-0.242-3.747-0.013-5.621,0.009c-0.759,0.01-0.759,1.188,0.001,1.177
			c1.877-0.021,3.75-0.252,5.622-0.009C33.641,37.231,33.63,36.053,32.887,35.957z"/>
		<path fill="#FFFFFF" d="M26.123,41.252c-1.285-0.018-2.167,0.818-3.206,1.442c-0.651,0.388-0.06,1.403,0.593,1.011
			c0.826-0.49,1.596-1.292,2.615-1.278C26.883,42.44,26.881,41.263,26.123,41.252z"/>
		<path fill="#FFFFFF" d="M27.67,50.335c-1.32,0.773-2.631,1.562-3.927,2.381c-0.639,0.405-0.045,1.42,0.598,1.011
			c1.294-0.815,2.603-1.603,3.925-2.373C28.92,50.971,28.326,49.951,27.67,50.335z"/>
	</g>
</g>
</svg>
